<?xml version="1.0" standalone="no"?>
<!DOCTYPE svg PUBLIC "-//W3C//DTD SVG 20010904//EN"
 "http://www.w3.org/TR/2001/REC-SVG-20010904/DTD/svg10.dtd">
<svg version="1.0" xmlns="http://www.w3.org/2000/svg"
 width="176.000000pt" height="176.000000pt" viewBox="0 0 176.000000 176.000000"
 preserveAspectRatio="xMidYMid meet">
<metadata>
Created by potrace 1.11, written by Peter Selinger 2001-2013
</metadata>
<g transform="translate(0.000000,176.000000) scale(0.100000,-0.100000)"
fill="#000000" stroke="none">
<path d="M675 1699 c-154 -42 -198 -62 -288 -124 -51 -35 -103 -73 -116 -84
-13 -12 -28 -21 -33 -21 -4 0 -8 -5 -8 -11 0 -6 -17 -32 -39 -58 -21 -25 -55
-73 -76 -106 -21 -33 -42 -61 -47 -63 -4 -2 -8 -10 -8 -18 0 -7 -12 -53 -26
-101 -32 -108 -43 -289 -25 -385 43 -220 166 -415 343 -543 70 -51 239 -130
303 -141 16 -3 50 -10 75 -15 96 -22 308 -3 435 37 113 36 270 137 349 223 23
25 48 52 56 61 19 21 37 48 52 80 7 14 15 27 19 30 8 7 59 117 59 128 0 5 8
24 17 43 14 27 18 69 21 205 4 151 2 179 -17 250 -24 85 -77 204 -92 204 -5 0
-8 3 -8 8 3 20 -2 32 -16 32 -9 0 -15 9 -15 21 0 27 -113 145 -200 209 -87 64
-136 88 -255 123 -86 25 -120 30 -245 33 -121 2 -157 0 -215 -17z"/>
</g>
</svg>
